<svg width="30" height="30" viewBox="0 0 30 30" fill="none" xmlns="http://www.w3.org/2000/svg">
<path d="M8.33366 13.3337H5.66699C2.44033 13.3337 0.666992 11.5603 0.666992 8.33366V5.66699C0.666992 2.44033 2.44033 0.666992 5.66699 0.666992H8.33366C11.5603 0.666992 13.3337 2.44033 13.3337 5.66699V8.33366C13.3337 11.5603 11.5603 13.3337 8.33366 13.3337ZM5.66699 2.66699C3.56033 2.66699 2.66699 3.56033 2.66699 5.66699V8.33366C2.66699 10.4403 3.56033 11.3337 5.66699 11.3337H8.33366C10.4403 11.3337 11.3337 10.4403 11.3337 8.33366V5.66699C11.3337 3.56033 10.4403 2.66699 8.33366 2.66699H5.66699Z" fill="#1F1E23"/>
<path d="M24.3337 13.3337H21.667C18.4403 13.3337 16.667 11.5603 16.667 8.33366V5.66699C16.667 2.44033 18.4403 0.666992 21.667 0.666992H24.3337C27.5603 0.666992 29.3337 2.44033 29.3337 5.66699V8.33366C29.3337 11.5603 27.5603 13.3337 24.3337 13.3337ZM21.667 2.66699C19.5603 2.66699 18.667 3.56033 18.667 5.66699V8.33366C18.667 10.4403 19.5603 11.3337 21.667 11.3337H24.3337C26.4403 11.3337 27.3337 10.4403 27.3337 8.33366V5.66699C27.3337 3.56033 26.4403 2.66699 24.3337 2.66699H21.667Z" fill="#1F1E23"/>
<path d="M24.3337 29.3337H21.667C18.4403 29.3337 16.667 27.5603 16.667 24.3337V21.667C16.667 18.4403 18.4403 16.667 21.667 16.667H24.3337C27.5603 16.667 29.3337 18.4403 29.3337 21.667V24.3337C29.3337 27.5603 27.5603 29.3337 24.3337 29.3337ZM21.667 18.667C19.5603 18.667 18.667 19.5603 18.667 21.667V24.3337C18.667 26.4403 19.5603 27.3337 21.667 27.3337H24.3337C26.4403 27.3337 27.3337 26.4403 27.3337 24.3337V21.667C27.3337 19.5603 26.4403 18.667 24.3337 18.667H21.667Z" fill="#1F1E23"/>
<path d="M8.33366 29.3337H5.66699C2.44033 29.3337 0.666992 27.5603 0.666992 24.3337V21.667C0.666992 18.4403 2.44033 16.667 5.66699 16.667H8.33366C11.5603 16.667 13.3337 18.4403 13.3337 21.667V24.3337C13.3337 27.5603 11.5603 29.3337 8.33366 29.3337ZM5.66699 18.667C3.56033 18.667 2.66699 19.5603 2.66699 21.667V24.3337C2.66699 26.4403 3.56033 27.3337 5.66699 27.3337H8.33366C10.4403 27.3337 11.3337 26.4403 11.3337 24.3337V21.667C11.3337 19.5603 10.4403 18.667 8.33366 18.667H5.66699Z" fill="#1F1E23"/>
</svg>
